<svg preserveAspectRatio="none" overflow="visible" style="display: block;" width="35.1937" height="33.0001" viewBox="0 0 35.1937 33.0001" fill="none" xmlns="http://www.w3.org/2000/svg">
<g id="Group 1000001830">
<path id="Vector" d="M9.57736 15.312H0.608668C0.447239 15.312 0.292422 15.3761 0.178275 15.4902C0.0641274 15.6044 0 15.7592 0 15.9206L0 32.3913C0 32.5528 0.0641274 32.7076 0.178275 32.8217C0.292422 32.9359 0.447239 33 0.608668 33H9.57736C9.65729 33 9.73644 32.9843 9.81029 32.9537C9.88413 32.9231 9.95123 32.8782 10.0078 32.8217C10.0643 32.7652 10.1091 32.6981 10.1397 32.6243C10.1703 32.5504 10.186 32.4713 10.186 32.3913V15.9206C10.186 15.8407 10.1703 15.7615 10.1397 15.6877C10.1091 15.6138 10.0643 15.5467 10.0078 15.4902C9.95123 15.4337 9.88413 15.3889 9.81029 15.3583C9.73644 15.3277 9.65729 15.312 9.57736 15.312ZM5.08935 30.9613C4.6763 30.9599 4.27294 30.8361 3.93021 30.6055C3.58747 30.375 3.32073 30.0481 3.16367 29.6661C3.00661 29.284 2.96626 28.864 3.04773 28.4591C3.1292 28.0542 3.32883 27.6825 3.62141 27.3909C3.914 27.0993 4.28641 26.901 4.69163 26.821C5.09685 26.7409 5.5167 26.7827 5.89818 26.9411C6.27965 27.0995 6.60563 27.3674 6.83496 27.7109C7.06429 28.0545 7.18668 28.4583 7.18669 28.8713C7.18475 29.4263 6.96292 29.9579 6.5698 30.3496C6.17669 30.7414 5.64433 30.9613 5.08935 30.9613Z" fill="#7CAC2F"/>
<path id="Vector_2" d="M34.98 19.1107C34.9691 18.7853 34.9072 18.4636 34.7967 18.1574C34.7309 18.0081 34.6549 17.8636 34.5693 17.7247C34.528 17.7018 34.4908 17.6721 34.4594 17.6367C34.3792 17.5557 34.3342 17.4463 34.3342 17.3324C34.3342 17.2184 34.3792 17.109 34.4594 17.028C34.701 16.7817 34.8905 16.4891 35.0165 16.1678C35.1425 15.8464 35.2025 15.503 35.1927 15.158C35.1927 13.8674 34.5914 12.7674 33.88 12.7674H25.08C25.0229 12.7684 24.9662 12.7578 24.9133 12.7365C24.8603 12.7151 24.8122 12.6832 24.7718 12.6429C24.7315 12.6025 24.6996 12.5544 24.6782 12.5014C24.6568 12.4485 24.6463 12.3918 24.6473 12.3347C24.6473 12.21 25.3807 8.66802 25.4467 8.01535C25.608 6.44602 25.938 3.19001 24.7133 1.41534C24.3027 0.836002 23.3713 0 22.7407 0H22.616C21.142 0.352001 21.0906 1.81867 21.1713 3.93068C21.2203 4.53102 21.2203 5.13434 21.1713 5.73468C20.8856 7.44793 20.2025 9.07041 19.1766 10.472C18.1933 11.8581 17.0943 13.1583 15.8913 14.3587C14.96 15.312 13.5153 16.5587 11.7773 16.5587H11.66V28.6734H15.7006C15.783 28.6865 15.8609 28.7192 15.928 28.7687C18.8613 30.5874 23.2027 30.8147 24.9333 30.8147H25.2707H25.3733H29.7C29.9959 30.8135 30.288 30.7472 30.5554 30.6205C30.8228 30.4937 31.059 30.3097 31.2473 30.0814C31.6957 29.5567 31.9381 28.8869 31.9293 28.1967C31.9278 27.7682 31.8405 27.3443 31.6727 26.9501C31.6462 26.8822 31.6359 26.8091 31.6426 26.7365C31.6493 26.664 31.6728 26.594 31.7112 26.5321C31.7496 26.4702 31.8019 26.4181 31.864 26.3799C31.926 26.3417 31.9961 26.3185 32.0687 26.3121H32.3107C32.9666 26.2651 33.5772 25.9601 34.0087 25.4639C34.4403 24.9678 34.6577 24.3208 34.6134 23.6647C34.6179 23.0143 34.3977 22.3822 33.99 21.8754C33.9194 21.7873 33.886 21.6751 33.897 21.5628C33.908 21.4504 33.9624 21.3468 34.0487 21.2741C34.3513 21.0024 34.5913 20.6682 34.7521 20.2947C34.9129 19.9212 34.9906 19.5172 34.98 19.1107Z" fill="#7CAC2F"/>
</g>
</svg>
